<svg width="173" height="33" viewBox="0 0 173 33" fill="none" xmlns="http://www.w3.org/2000/svg">
<g clip-path="url(#clip0_330_486)">
<path d="M18.2291 17.5786V17.5067C18.2509 16.1314 17.9877 14.7664 17.4561 13.4977C16.9829 12.3732 16.2926 11.353 15.4247 10.4955C14.603 9.69181 13.6319 9.05664 12.5663 8.62581C11.5339 8.20119 10.4287 7.98144 9.31229 7.97881C8.46446 7.96909 7.62063 8.09654 6.81348 8.35622C6.08933 8.59296 5.40009 8.92549 4.7641 9.34497C4.15036 9.75458 3.58888 10.2375 3.09212 10.7832C2.60029 11.3195 2.15521 11.8968 1.76175 12.509V0.5H0V26.7471H1.76217V22.7927C2.15412 23.3786 2.593 23.9317 3.0745 24.4466C3.56931 24.9768 4.12439 25.4475 4.72844 25.8489C5.36764 26.2697 6.06386 26.5968 6.79586 26.8201C8.69686 27.3888 10.7362 27.281 12.5666 26.5149C13.6339 26.071 14.6047 25.4237 15.4249 24.6092C16.2905 23.7429 16.9804 22.7173 17.4564 21.589C17.9881 20.3199 18.2512 18.9544 18.2291 17.5786ZM16.3235 17.6505C16.3409 18.772 16.152 19.8871 15.7661 20.9403C15.4288 21.8563 14.9089 22.6942 14.238 23.4032C13.5935 24.0726 12.8158 24.5993 11.955 24.9493C11.0588 25.313 10.0996 25.4963 9.13247 25.4886C8.17416 25.4887 7.22594 25.293 6.34602 24.9134C4.50918 24.138 3.05005 22.6726 2.28249 20.8325C1.85385 19.8145 1.63987 18.719 1.65394 17.6145V17.5427C1.63865 16.4439 1.85272 15.3541 2.28249 14.3427C2.6789 13.418 3.24609 12.5764 3.95433 11.8618C4.63976 11.1733 5.45191 10.6239 6.34602 10.2438C7.21999 9.86733 8.16112 9.67164 9.11272 9.66854C10.0643 9.66544 11.0067 9.85499 11.8831 10.2258C12.7496 10.5917 13.5325 11.1302 14.1842 11.8084C14.8669 12.5288 15.3986 13.3784 15.7482 14.3072C16.1429 15.3523 16.3381 16.4621 16.3235 17.5792V17.6505ZM25.9594 3.62806V1.21916H23.7662V3.62819L25.9594 3.62806ZM25.7436 26.7471V8.41005H23.9814V26.7471H25.7436ZM41.7795 26.4236V24.7696C41.3293 24.982 40.8597 25.1506 40.3772 25.273C39.9528 25.3708 39.5184 25.4191 39.0828 25.4169C38.0041 25.4169 37.1232 25.1533 36.4401 24.626C35.757 24.0988 35.4154 23.1759 35.4154 21.8575V10.0281H41.8513V8.41005H35.4157V2.54939H33.6535V8.41005H30.9932V10.0281H33.6539V22.037C33.6366 22.805 33.771 23.5689 34.0494 24.2848C34.2851 24.8816 34.6537 25.4167 35.1272 25.8497C35.6007 26.2827 36.1666 26.6021 36.782 26.7836C37.435 26.9797 38.1137 27.0767 38.7954 27.0713C39.3212 27.0765 39.8459 27.0222 40.3595 26.9095C40.8477 26.7944 41.3234 26.6316 41.7797 26.4236H41.7795ZM47.1367 18.2978H62.3459C62.366 18.191 62.378 18.0828 62.3818 17.9742V17.5787C62.3941 16.2903 62.1937 15.0086 61.7885 13.7855C61.4222 12.675 60.8488 11.6439 60.0986 10.7468C59.3733 9.88828 58.4721 9.1955 57.456 8.71531C56.3635 8.21077 55.1713 7.95903 53.9681 7.97881C52.7753 7.967 51.5954 8.22514 50.5165 8.7339C49.4733 9.22865 48.5384 9.92513 47.7658 10.7832C46.9705 11.6729 46.3486 12.7035 45.9321 13.8218C45.4838 15.011 45.2583 16.2724 45.2669 17.5432V17.6151C45.2488 18.9558 45.4931 20.2872 45.986 21.5342C46.4341 22.6601 47.1003 23.6863 47.9462 24.5539C48.7651 25.3874 49.7433 26.0477 50.8226 26.4954C51.91 26.9502 53.0776 27.1825 54.2563 27.1785C56.0061 27.1785 57.4742 26.8548 58.6608 26.2073C59.8491 25.5586 60.9239 24.7207 61.8428 23.7263L60.6204 22.6477C59.8514 23.4641 58.9598 24.1555 57.9777 24.6971C56.9829 25.2484 55.7665 25.524 54.3285 25.524C53.4367 25.5275 52.5523 25.3628 51.7217 25.0384C50.8975 24.717 50.1456 24.2345 49.51 23.6191C48.841 22.9656 48.2932 22.1987 47.892 21.3539C47.4423 20.3946 47.1858 19.3561 47.137 18.2978H47.1367ZM47.1367 16.716C47.2004 15.7429 47.4315 14.788 47.8198 13.8934C48.1752 13.0622 48.6675 12.2964 49.2763 11.628C49.8581 10.9967 50.5613 10.4892 51.3437 10.1359C52.1849 9.7711 53.0934 9.58739 54.0101 9.59669C54.9269 9.60599 55.8315 9.80809 56.6651 10.1898C57.4354 10.5688 58.1158 11.1082 58.6606 11.7716C59.2092 12.4474 59.635 13.214 59.919 14.0368C60.2212 14.9015 60.4084 15.8022 60.4756 16.7157L47.1367 16.716ZM80.7546 20.8868V20.8149C80.7546 19.928 80.5748 19.1729 80.2152 18.5497C79.8664 17.939 79.4024 17.4019 78.8489 16.9679C78.2755 16.5236 77.647 16.1552 76.9792 15.8718C76.2841 15.5722 75.601 15.3145 74.9299 15.0988C74.4026 14.931 73.9052 14.7632 73.4377 14.5954C73.0143 14.4462 72.6001 14.2721 72.1973 14.0741C71.8833 13.9251 71.5926 13.7313 71.3343 13.4988C71.2338 13.4115 71.153 13.3039 71.0972 13.183C71.0414 13.0622 71.012 12.9308 71.0108 12.7977V12.7242C71.0102 12.5363 71.0558 12.3511 71.1436 12.185C71.2314 12.0188 71.3586 11.8768 71.5142 11.7714C71.8498 11.5197 72.3531 11.3938 73.0242 11.3938C73.7194 11.3938 74.5224 11.5557 75.4333 11.8794C76.4056 12.2317 77.3443 12.6709 78.2377 13.1918L80.3232 9.41643C79.2486 8.71192 78.0807 8.16128 76.8535 7.78053C75.6507 7.39379 74.3956 7.1937 73.1322 7.18722C72.2006 7.17975 71.2733 7.31307 70.3817 7.58267C69.5674 7.82692 68.8097 8.2304 68.1526 8.7697C67.4858 9.31754 66.9529 10.0105 66.5946 10.7956C66.2363 11.5807 66.062 12.4373 66.0852 13.3V13.3719C66.0852 14.3067 66.2589 15.0976 66.6065 15.7446C66.9406 16.3755 67.3993 16.932 67.9547 17.3805C68.5154 17.8294 69.1394 18.1929 69.8064 18.4591C70.4708 18.7283 71.1489 18.9623 71.8379 19.1602C72.3651 19.328 72.8685 19.4839 73.3479 19.6277C73.781 19.7551 74.2071 19.9051 74.6245 20.0771C74.9513 20.2042 75.2505 20.3935 75.5054 20.6344C75.608 20.7315 75.6897 20.8486 75.7453 20.9784C75.801 21.1083 75.8294 21.2482 75.829 21.3895V21.4613C75.832 21.6681 75.7824 21.8723 75.685 22.0546C75.5875 22.237 75.4453 22.3917 75.2717 22.5041C74.9002 22.7677 74.3189 22.8995 73.5279 22.8995C72.5248 22.8819 71.5328 22.6871 70.5976 22.3242C69.4743 21.8968 68.4155 21.3161 67.4515 20.5984L65.1144 24.1939C67.4702 26.0577 70.3803 27.0826 73.3841 27.1062C74.3617 27.1133 75.3355 26.9862 76.2785 26.7287C77.1273 26.5012 77.926 26.1171 78.6336 25.596C79.3047 25.0927 79.8418 24.4322 80.1976 23.6725C80.5691 22.8938 80.7549 21.9651 80.7549 20.8865L80.7546 20.8868ZM104.917 17.1472V17.0753C104.917 15.4693 104.671 14.0491 104.179 12.8146C103.735 11.6549 103.07 10.5925 102.22 9.68658C101.432 8.85408 100.476 8.19844 99.4155 7.76305C98.3778 7.33491 97.2661 7.11497 96.1436 7.11576C94.7053 7.11576 93.5129 7.40941 92.5661 7.99671C91.6203 8.58318 90.7963 9.34635 90.1392 10.2445V7.47527H84.6742V32.4999H90.1394V24.2302C90.8217 25.0268 91.6293 25.7069 92.5304 26.2436C93.4773 26.8189 94.6818 27.1065 96.144 27.1065C97.2784 27.1097 98.4023 26.8898 99.4519 26.4594C100.508 26.0266 101.459 25.3704 102.238 24.5358C103.078 23.6259 103.737 22.5643 104.18 21.4078C104.671 20.1733 104.917 18.7531 104.917 17.1472ZM99.4513 17.1472C99.463 17.8954 99.335 18.6393 99.0738 19.3405C98.8407 19.9574 98.493 20.5247 98.0491 21.0123C97.6308 21.4702 97.1229 21.8374 96.5569 22.091C95.984 22.34 95.3659 22.4685 94.7412 22.4685C94.1165 22.4685 93.4984 22.34 92.9255 22.091C92.3632 21.84 91.8607 21.4723 91.4513 21.0123C91.0145 20.5159 90.6731 19.943 90.4446 19.3224C90.1864 18.6267 90.0584 17.8893 90.067 17.1472V17.0753C90.0584 16.3332 90.1864 15.5959 90.4446 14.9001C90.6731 14.2794 91.0145 13.7063 91.4515 13.2098C91.8608 12.7498 92.3633 12.3821 92.9256 12.1311C93.4986 11.8821 94.1166 11.7536 94.7413 11.7536C95.3661 11.7536 95.9841 11.8821 96.5571 12.1311C97.123 12.3848 97.6309 12.7519 98.0492 13.2098C98.4959 13.7022 98.8438 14.2759 99.0739 14.8997C99.3321 15.5956 99.4601 16.333 99.4515 17.0752L99.4513 17.1472ZM126.921 17.6499V17.578C126.926 16.2457 126.738 14.9196 126.364 13.6409C126.014 12.4238 125.427 11.2875 124.638 10.297C123.846 9.316 122.844 8.52407 121.707 7.97881C120.533 7.40354 119.142 7.1159 117.537 7.1159C116.249 7.09569 114.971 7.34791 113.788 7.85602C112.604 8.36413 111.542 9.11666 110.669 10.0643C109.818 10.9959 109.152 12.0821 108.71 13.2642C108.239 14.5044 108.001 15.8209 108.009 17.1474V17.2192C107.99 18.6043 108.246 19.9793 108.764 21.2642C109.246 22.4436 109.962 23.5136 110.867 24.4103C111.781 25.3068 112.87 26.0045 114.067 26.4596C115.347 26.9473 116.707 27.1912 118.076 27.1788C119.826 27.1788 121.348 26.8612 122.642 26.226C123.926 25.5993 125.056 24.6969 125.95 23.5833L122.822 20.8147C122.166 21.4357 121.413 21.9457 120.593 22.3248C119.819 22.6472 118.986 22.8063 118.148 22.7923C116.925 22.7923 115.901 22.4746 115.074 21.8394C114.247 21.2042 113.701 20.2633 113.438 19.0168H126.849C126.873 18.7531 126.891 18.5254 126.903 18.3337C126.915 18.1419 126.921 17.914 126.921 17.6499ZM121.6 15.6005H113.366C113.582 14.3541 114.043 13.3593 114.75 12.6162C115.458 11.8732 116.386 11.5016 117.537 11.5016C118.687 11.5016 119.61 11.8792 120.305 12.6343C121.001 13.3894 121.432 14.3783 121.6 15.6011V15.6005ZM148.962 17.6499V17.578C148.967 16.2457 148.779 14.9196 148.404 13.6409C148.054 12.4238 147.468 11.2875 146.679 10.297C145.886 9.31596 144.885 8.52402 143.748 7.97881C142.573 7.40354 141.183 7.1159 139.577 7.1159C138.289 7.0957 137.012 7.34792 135.828 7.85603C134.645 8.36415 133.582 9.11667 132.71 10.0643C131.858 10.9959 131.193 12.0821 130.75 13.2642C130.28 14.5044 130.042 15.8209 130.049 17.1474V17.2192C130.03 18.6043 130.287 19.9793 130.804 21.2642C131.287 22.4436 132.002 23.5136 132.908 24.4103C133.821 25.3068 134.911 26.0045 136.107 26.4596C137.387 26.9473 138.747 27.1912 140.116 27.1788C141.866 27.1788 143.388 26.8612 144.683 26.226C145.966 25.5993 147.096 24.6969 147.991 23.5833L144.863 20.8147C144.206 21.4357 143.453 21.9457 142.633 22.3248C141.859 22.6472 141.027 22.8064 140.188 22.7923C138.966 22.7923 137.941 22.4746 137.114 21.8394C136.287 21.2042 135.742 20.2634 135.478 19.0169H148.889C148.913 18.7533 148.931 18.5256 148.943 18.3338C148.955 18.1421 148.961 17.9141 148.961 17.6499H148.962ZM143.641 15.6005H135.407C135.623 14.3541 136.084 13.3593 136.791 12.6162C137.498 11.8732 138.427 11.5016 139.578 11.5016C140.728 11.5016 141.651 11.8792 142.346 12.6343C143.041 13.3894 143.473 14.3783 143.64 15.6011L143.641 15.6005ZM172.404 26.7466V0.5H166.939V9.99212C166.257 9.19549 165.449 8.51546 164.548 7.97881C163.601 7.40354 162.397 7.1159 160.934 7.1159C159.8 7.11271 158.676 7.3326 157.627 7.76305C156.57 8.19582 155.619 8.852 154.84 9.68658C154 10.5965 153.341 11.6581 152.898 12.8146C152.407 14.0491 152.161 15.4693 152.161 17.0753V17.1472C152.161 18.7532 152.407 20.1735 152.898 21.4079C153.343 22.5677 154.008 23.6301 154.858 24.536C155.646 25.3685 156.602 26.0241 157.662 26.4595C158.7 26.8876 159.812 27.1075 160.934 27.1067C162.373 27.1067 163.565 26.813 164.512 26.2257C165.458 25.6392 166.282 24.8761 166.939 23.9779V26.7464L172.404 26.7466ZM167.01 17.1472C167.019 17.8893 166.891 18.6267 166.633 19.3224C166.404 19.943 166.063 20.5159 165.626 21.0123C165.217 21.4723 164.714 21.84 164.152 22.091C163.579 22.34 162.961 22.4685 162.336 22.4685C161.712 22.4685 161.093 22.34 160.521 22.091C159.955 21.8374 159.447 21.4703 159.028 21.0123C158.582 20.5199 158.234 19.9462 158.004 19.3224C157.746 18.6267 157.618 17.8893 157.626 17.1472V17.0753C157.614 16.3271 157.742 15.5833 158.004 14.8821C158.237 14.2652 158.584 13.6979 159.028 13.2102C159.447 12.7523 159.955 12.3852 160.521 12.1316C161.093 11.8825 161.712 11.754 162.336 11.754C162.961 11.754 163.579 11.8825 164.152 12.1316C164.714 12.3825 165.217 12.7502 165.626 13.2102C166.063 13.7067 166.404 14.2796 166.633 14.9001C166.891 15.5959 167.019 16.3332 167.01 17.0753V17.1472Z" fill="url(#paint0_linear_330_486)"/>
</g>
<defs>
<linearGradient id="paint0_linear_330_486" x1="172.404" y1="16.4999" x2="0" y2="16.4999" gradientUnits="userSpaceOnUse">
<stop stop-color="#3B55E6"/>
<stop offset="0.52" stop-color="#4C96E3"/>
<stop offset="1" stop-color="#60E1E0"/>
</linearGradient>
<clipPath id="clip0_330_486">
<rect width="172.404" height="32" fill="white" transform="translate(0 0.5)"/>
</clipPath>
</defs>
</svg>
